<?xml version="1.0" encoding="iso-8859-1"?>
<!-- Generator: Adobe Illustrator 18.0.0, SVG Export Plug-In . SVG Version: 6.00 Build 0)  -->
<!DOCTYPE svg PUBLIC "-//W3C//DTD SVG 1.1//EN" "http://www.w3.org/Graphics/SVG/1.1/DTD/svg11.dtd">
<svg version="1.1" id="Capa_1" xmlns="http://www.w3.org/2000/svg" xmlns:xlink="http://www.w3.org/1999/xlink" x="0px" y="0px"
	 viewBox="0 0 474.166 474.166" style="enable-background:new 0 0 474.166 474.166;" xml:space="preserve" fill="#1976d2">
<g id="blogger">
	<g>
		<path d="M436.748,186.278h-25.337l-0.53,0.108c-15.883,0-28.875-12.266-29.967-27.838l-0.046-4.372
			C380.868,71.255,313.642,0,230.689,0h-75.768C71.96,0,7.376,75.315,7.376,158.238v164.689
			c0,82.921,64.584,151.238,147.545,151.238h161.636c82.96,0,150.187-67.778,150.187-150.7l0.046-106.824
			C466.79,200.057,453.354,186.278,436.748,186.278z M151.187,135.473h85.027c15.938,0,28.867,9.47,28.867,25.398
			c0,15.938-12.93,25.407-28.867,25.407h-85.027c-15.959,0-28.881-9.47-28.881-25.407
			C122.306,144.942,135.228,135.473,151.187,135.473z M321.716,355.629H151.017c-15.096,0-27.316-10.326-27.316-25.406
			c0-15.064,12.221-25.407,27.316-25.407h170.699c15.08,0,27.291,10.343,27.291,25.407
			C349.007,345.303,336.796,355.629,321.716,355.629z"/>
	</g>
</g>
<g>
</g>
<g>
</g>
<g>
</g>
<g>
</g>
<g>
</g>
<g>
</g>
<g>
</g>
<g>
</g>
<g>
</g>
<g>
</g>
<g>
</g>
<g>
</g>
<g>
</g>
<g>
</g>
<g>
</g>
</svg>
