<?xml version="1.0" encoding="UTF-8"?>
<svg width="15px" height="15px" viewBox="0 0 18 18" version="1.1" xmlns="http://www.w3.org/2000/svg" xmlns:xlink="http://www.w3.org/1999/xlink">
    <!-- Generator: Sketch 51 (57462) - http://www.bohemiancoding.com/sketch -->
    <title>icn_search</title>
    <desc>Created with Sketch.</desc>
    <defs>
        <polygon id="path-1" points="0.0004 0 17.078935 0 17.078935 17.4999 0.0004 17.4999"></polygon>
    </defs>
    <g id="icn_search" stroke="none" stroke-width="1" fill="none" fill-rule="evenodd">
        <g id="Group-3">
            <mask id="mask-2" fill="white">
                <use xlink:href="#path-1"></use>
            </mask>
            <g id="Clip-2"></g>
            <path d="M7.7354,12.9409 C4.6714,12.9409 2.1604,10.5179 2.1604,7.5209 C2.1604,4.5409 4.6524,2.0999 7.7354,2.0999 C10.8184,2.0999 13.2924,4.5409 13.2924,7.5209 C13.2924,10.4999 10.7994,12.9409 7.7354,12.9409 M16.7624,15.7049 L13.4954,12.5279 C14.7144,11.1999 15.4704,9.4409 15.4704,7.5209 C15.4704,3.3749 12.0004,-0.0001 7.7354,-0.0001 C3.4704,-0.0001 0.0004,3.3749 0.0004,7.5209 C0.0004,11.6669 3.4704,15.0409 7.7354,15.0409 C9.2494,15.0409 10.6524,14.6099 11.8344,13.8929 L15.2304,17.1949 C15.4334,17.3929 15.7114,17.4999 15.9874,17.4999 C16.2644,17.4999 16.5414,17.3929 16.7444,17.1949 C17.1874,16.7819 17.1874,16.1179 16.7624,15.7049" id="Fill-1" fill="#FFFFFF" mask="url(#mask-2)"></path>
        </g>
    </g>
</svg>